<svg width="60" height="61" viewBox="0 0 60 61" fill="none" xmlns="http://www.w3.org/2000/svg">
<path d="M27.7477 0.0588112C23.3945 0.469498 20.0855 1.39648 16.4715 3.21523C11.7075 5.59721 7.29555 9.64541 4.39728 14.292C2.29691 17.6479 0.771504 21.9777 0.149607 26.3193C-0.0498691 27.7039 -0.0498691 32.327 0.149607 33.7116C0.642431 37.1731 1.55768 40.2005 2.98921 43.0988C4.59676 46.3843 6.18083 48.5902 8.78576 51.2069C11.379 53.7884 13.6201 55.3959 16.7765 56.9448C18.9825 58.0243 20.4023 58.5523 22.6435 59.1155C28.5104 60.594 34.4009 60.3124 40.127 58.2824C41.8754 57.6605 44.9027 56.1469 46.4633 55.1025C50.7462 52.2512 54.2898 48.3204 56.6249 43.8028C58.7487 39.7194 59.8048 35.6595 59.9808 31.0128C60.1568 26.0142 59.1242 21.2502 56.8948 16.7679C55.4398 13.8344 53.8087 11.5228 51.5206 9.16432C48.9861 6.53593 46.4985 4.7289 43.1778 3.08616C39.7046 1.37301 36.466 0.446033 32.6173 0.0940132C31.4205 -0.0115891 28.7099 -0.0350571 27.7477 0.0588112ZM37.9328 16.6036L37.9562 19.5488L35.8207 19.5958C32.5704 19.6544 32.5586 19.6662 32.5586 22.9165V24.9699H35.3161C36.8298 24.9699 38.0736 24.9816 38.0736 25.0051C38.0736 25.0286 37.9445 26.2958 37.7802 27.833C37.616 29.3701 37.4869 30.7312 37.4869 30.8486C37.4869 31.0598 37.3695 31.0715 35.0228 31.0715H32.5586V39.7546V48.4377H28.9211H25.2836V39.7546V31.0715H23.5822H21.8808V28.0207V24.9699H23.5705H25.2602L25.3188 22.2359C25.3775 19.1499 25.4948 18.4928 26.281 17.0143C27.2432 15.1721 29.015 14.0104 31.2914 13.7171C31.6903 13.6584 33.3565 13.6232 34.9641 13.6349L37.8976 13.6467L37.9328 16.6036Z" fill="#A18F7B"/>
</svg>
