<svg width="60" height="61" viewBox="0 0 60 61" fill="none" xmlns="http://www.w3.org/2000/svg">
<path d="M27.7477 0.0588112C23.3006 0.481232 19.9916 1.41994 16.2485 3.32084C11.8131 5.58548 7.83531 9.15258 4.92531 13.4707C3.70498 15.3012 2.20304 18.3872 1.47554 20.5697C0.900577 22.3298 0.431221 24.3363 0.149607 26.3193C-0.0498691 27.7039 -0.0498691 32.327 0.149607 33.7116C0.642431 37.1731 1.55768 40.2005 2.98921 43.0988C4.59676 46.3843 6.18083 48.5902 8.78576 51.2069C11.379 53.7884 13.6201 55.3959 16.7765 56.9448C18.9825 58.0243 20.4023 58.5523 22.6435 59.1155C28.5104 60.594 34.4009 60.3124 40.127 58.2824C41.8754 57.6605 44.9027 56.1469 46.4633 55.1025C50.7462 52.2512 54.2898 48.3204 56.6249 43.8028C58.7487 39.7194 59.8048 35.6595 59.9808 31.0128C60.1568 26.0142 59.1242 21.2502 56.8948 16.7679C55.4398 13.8344 53.8087 11.5228 51.5206 9.16432C48.9861 6.53593 46.4985 4.7289 43.1778 3.08616C39.7046 1.37301 36.466 0.446033 32.6173 0.0940132C31.4205 -0.0115891 28.7099 -0.0350571 27.7477 0.0588112ZM47.3316 16.8148C48.0357 17.202 48.6224 17.8357 49.0096 18.6218L49.2795 19.1616V30.0155V40.8693L49.0096 41.4091C48.6224 42.1953 48.0357 42.8289 47.3316 43.2161L46.698 43.5681H29.9772H13.2564L12.6227 43.2161C11.9187 42.8289 11.332 42.1953 10.9448 41.4091L10.6749 40.8693V30.0155V19.1616L11.0035 18.4928C11.4024 17.6831 12.1769 16.9674 13.01 16.6505C13.5967 16.4159 13.9017 16.4159 30.1532 16.4393L46.698 16.4628L47.3316 16.8148Z" fill="#A18F7B"/>
<path d="M16.9526 19.6192C17.328 19.9713 29.7542 29.7925 29.9068 29.8512C30.0241 29.8981 42.2039 20.3819 43.0018 19.6192C43.1426 19.4784 41.3004 19.455 29.9772 19.455C18.7009 19.455 16.8117 19.4784 16.9526 19.6192Z" fill="#A18F7B"/>
<path d="M13.7844 30.6374C13.7844 39.7429 13.7961 40.2005 13.9956 40.3765C14.1951 40.5643 15.4741 40.576 30.0007 40.576C45.1609 40.576 45.7945 40.5643 45.9822 40.3648C46.1582 40.1653 46.17 39.3557 46.1465 30.6374L46.1113 21.1212L43.6472 23.0925C33.8259 30.9073 30.6108 33.4183 30.3175 33.477C30.1297 33.5239 29.8246 33.5239 29.6486 33.477C29.4726 33.4418 27.4192 31.9046 25.0959 30.0624C21.7517 27.3988 15.6266 22.5527 14.0543 21.2972L13.7844 21.086V30.6374Z" fill="#A18F7B"/>
</svg>
