<svg width="60" height="61" viewBox="0 0 60 61" fill="none" xmlns="http://www.w3.org/2000/svg">
<path d="M27.7748 0.0441475C27.5824 0.068203 26.8968 0.152397 26.2714 0.22456C21.0393 0.813915 15.8193 3.00294 11.3571 6.45488C10.0341 7.47723 7.42406 10.0872 6.40171 11.4103C3.07005 15.7041 1.04941 20.455 0.207477 25.9156C-0.0691589 27.7197 -0.0691589 32.3624 0.207477 34.1665C1.55457 42.9106 6.1371 50.2114 13.2815 54.9984C17.2506 57.6565 21.328 59.184 26.3315 59.8937C27.9552 60.1222 32.3814 60.0861 34.1495 59.8335C38.6358 59.172 42.9417 57.5242 46.5981 55.0826C54.0191 50.1152 58.5776 42.7543 59.8525 33.7095C60.057 32.2782 60.045 27.7799 59.8405 26.3125C58.7821 18.675 55.1016 11.8914 49.4246 7.10437C45.1307 3.47202 39.7784 1.06649 34.2096 0.272671C32.9106 0.0802307 28.5927 -0.0761299 27.7748 0.0441475ZM38.8523 11.7711C40.5361 11.9515 41.6908 12.2763 43.0499 12.9498C45.4795 14.1526 46.9709 15.8845 47.873 18.5306C48.4984 20.3709 48.5225 20.7317 48.5225 30.0411C48.5225 37.0893 48.4864 38.8573 48.3421 39.6752C47.4641 44.7028 44.1444 47.7217 38.8402 48.3231C37.3969 48.4794 22.5789 48.4794 21.1596 48.3231C17.2747 47.8781 14.352 46.0859 12.8485 43.2354C12.2953 42.177 11.8743 40.9261 11.6578 39.6752C11.3932 38.1958 11.3932 21.8863 11.6578 20.4069C11.9946 18.4464 12.7884 16.6303 13.8709 15.3072C15.3984 13.4429 18.0926 12.1079 20.9792 11.7711C22.3263 11.6147 37.4691 11.6147 38.8523 11.7711Z" fill="#A18F7B"/>
<path d="M25.3693 15.1388C20.462 15.223 20.1493 15.2591 18.5015 16.0409C16.962 16.7626 15.675 18.4585 15.1338 20.4791C14.9173 21.2609 14.9053 21.8863 14.9053 30.0411C14.9053 38.1958 14.9173 38.8212 15.1338 39.603C15.675 41.6237 16.962 43.3196 18.5015 44.0412C20.1493 44.823 20.45 44.8591 25.4655 44.9433C27.9552 44.9794 32.0446 44.9794 34.5464 44.9433C39.5499 44.8591 39.8506 44.823 41.4984 44.0412C43.0379 43.3196 44.3249 41.6237 44.8661 39.603C45.0826 38.8212 45.0946 38.1958 45.0946 30.0411C45.0946 21.8863 45.0826 21.2609 44.8661 20.4791C44.3249 18.4585 43.0379 16.7626 41.4984 16.0409C39.9829 15.3192 39.3935 15.223 36.1942 15.1749C34.6065 15.1509 32.5257 15.1148 31.5635 15.0907C30.6013 15.0787 27.8229 15.1027 25.3693 15.1388ZM40.6324 18.5426C40.8489 18.6389 41.1856 18.9155 41.3781 19.1681C41.6667 19.5409 41.7269 19.7334 41.7269 20.3107C41.7269 20.8279 41.6667 21.0925 41.4743 21.3451C40.5722 22.5599 38.8643 22.5358 38.1426 21.2849C37.842 20.7678 37.842 19.8416 38.1306 19.3365C38.6117 18.5186 39.7303 18.1698 40.6324 18.5426ZM32.2491 20.5392C36.6993 21.5977 39.7423 25.4706 39.7423 30.0411C39.7423 35.5016 35.4605 39.7834 29.9999 39.7834C24.5514 39.7834 20.2576 35.4896 20.2576 30.0411C20.2576 25.4946 23.2765 21.6337 27.6906 20.5392C28.9776 20.2265 30.9501 20.2265 32.2491 20.5392Z" fill="#A18F7B"/>
<path d="M28.0755 24.0633C25.9947 24.773 24.5514 26.2764 23.938 28.3452C23.8298 28.7301 23.7456 29.4397 23.7456 30.0411C23.7456 31.7971 24.371 33.3126 25.5617 34.4913C26.7765 35.6941 28.2559 36.2954 29.9999 36.2954C31.756 36.2954 33.2714 35.67 34.4502 34.4793C35.6529 33.2645 36.2543 31.7851 36.2543 30.0411C36.2543 27.1665 34.4622 24.797 31.6958 23.9791C30.7096 23.6905 29.0497 23.7266 28.0755 24.0633Z" fill="#A18F7B"/>
</svg>
