<svg width="32" height="25" viewBox="0 0 32 25" fill="none" xmlns="http://www.w3.org/2000/svg">
<path d="M0.213303 0.251621C-0.135723 0.665582 -0.0464375 1.18506 0.408108 1.42045C0.61103 1.52597 1.91785 1.54221 10.9601 1.54221C20.0023 1.54221 21.3091 1.52597 21.512 1.42045C21.9665 1.18506 22.0558 0.665582 21.7068 0.251621L21.4958 -2.02656e-06H10.9601H0.424342L0.213303 0.251621Z" fill="#F2F4EA"/>
<path d="M0.440573 7.87337C-0.0383233 8.06818 -0.143843 8.71753 0.237651 9.09902L0.47304 9.33441H15.6678H30.8627L31.098 9.09902C31.3984 8.79058 31.4146 8.38474 31.1386 8.06006L30.9438 7.83279L15.7734 7.81655C7.33992 7.80844 0.529859 7.83279 0.440573 7.87337Z" fill="#F2F4EA"/>
<path d="M0.237662 15.901C-0.062663 16.2094 -0.0788968 16.6153 0.197077 16.9399L0.391882 17.1672H10.9601H21.5282L21.7231 16.9399C21.999 16.6153 21.9828 16.2094 21.6825 15.901L21.4471 15.6656H10.9601H0.473051L0.237662 15.901Z" fill="#F2F4EA"/>
<path d="M0.391877 23.5877C-0.0464344 23.8231 -0.127603 24.3425 0.213306 24.7484L0.424345 25H15.6679H30.9114L31.1224 24.7484C31.4714 24.3344 31.3821 23.8149 30.9276 23.5795C30.7166 23.474 28.9146 23.4578 15.6516 23.4578C2.53473 23.4659 0.586682 23.4821 0.391877 23.5877Z" fill="#F2F4EA"/>
</svg>
